<svg xmlns:inkscape="http://www.inkscape.org/namespaces/inkscape" xmlns:sodipodi="http://sodipodi.sourceforge.net/DTD/sodipodi-0.dtd" xmlns="http://www.w3.org/2000/svg" xmlns:svg="http://www.w3.org/2000/svg" width="47.625366mm" height="9.4061279mm" viewBox="0 0 47.625366 9.4061279" id="svg5" xml:space="preserve" inkscape:export-filename="Logo_180_60.png" inkscape:export-xdpi="96" inkscape:export-ydpi="96"><defs id="defs2"></defs><g inkscape:label="Layer 1" inkscape:groupmode="layer" id="layer1" transform="translate(134.45439,-1241.4836)"><path style="fill:#ffffff;stroke-width:0.0130014" d="m -128.98614,1250.4509 c -0.2194,-0.2412 -0.40658,-0.4509 -0.41596,-0.4658 -0.015,-0.024 -0.0117,-0.036 0.0276,-0.1024 0.0611,-0.1028 0.25976,-0.2989 0.36385,-0.3591 0.0466,-0.027 0.13157,-0.064 0.18889,-0.083 0.0898,-0.03 0.12682,-0.034 0.26705,-0.035 0.18127,0 0.25598,0.016 0.40384,0.09 0.17177,0.086 0.3444,0.2444 0.4365,0.401 l 0.0349,0.059 -0.0354,0.042 c -0.0195,0.023 -0.20815,0.2335 -0.41933,0.4672 -0.3208,0.355 -0.38966,0.4249 -0.41853,0.4249 -0.0288,0 -0.10053,-0.072 -0.43347,-0.4387 z m 25.67773,-0.8795 c -0.0251,0 -0.10129,-0.011 -0.16935,-0.019 -0.23088,-0.026 -0.5207,-0.099 -0.7455,-0.1883 -0.91489,-0.363 -1.65671,-1.1658 -2.0103,-2.1757 -0.29876,-0.8533 -0.28343,-1.8077 0.0422,-2.6307 0.43718,-1.1048 1.35025,-1.9333 2.4171,-2.1933 0.26256,-0.064 0.4287,-0.082 0.7524,-0.083 0.54155,0 0.94146,0.087 1.38065,0.3051 0.52142,0.2586 0.93441,0.6112 1.29016,1.1015 0.524936,0.7236 0.799177,1.6658 0.730802,2.5109 -0.04511,0.5575 -0.170338,1.0019 -0.416972,1.4799 -0.18819,0.3647 -0.40215,0.656 -0.69048,0.9401 -0.28424,0.28 -0.55113,0.4692 -0.90679,0.6428 -0.29758,0.1452 -0.59287,0.237 -0.91923,0.2857 -0.12885,0.019 -0.65103,0.036 -0.75473,0.024 z m 0.7321,-1.0295 c 0.9126,-0.1957 1.62825,-1.0309 1.81378,-2.1168 0.15724,-0.9203 -0.13983,-1.9012 -0.76251,-2.5175 -0.30477,-0.3017 -0.66173,-0.4968 -1.07148,-0.5857 -0.17916,-0.039 -0.6496,-0.042 -0.84216,-0.01 -0.95454,0.1786 -1.68848,1.0344 -1.87192,2.1826 -0.0318,0.1993 -0.0315,0.6555 6.8e-4,0.8629 0.0534,0.3449 0.1411,0.6202 0.2954,0.9278 0.35277,0.7032 0.94141,1.1574 1.64752,1.2713 0.17519,0.028 0.62176,0.018 0.79072,-0.018 z m -14.28014,-2.1224 v -3.1078 h -1.21802 -1.21802 v -0.4931 -0.4931 h 2.98317 2.98318 v 0.4931 0.4931 h -1.21802 -1.21802 v 3.1078 3.1077 h -0.54714 -0.54713 z m 4.33798,-0.4931 v -3.6009 h 1.63162 c 1.73892,0 1.7663,0 2.01396,0.064 0.38909,0.099 0.79067,0.3539 1.09085,0.6925 0.33232,0.3748 0.55003,0.8609 0.60375,1.3479 0.0475,0.4308 -0.04,0.9096 -0.24017,1.3143 -0.24621,0.4979 -0.6633,0.8853 -1.10854,1.0299 l -0.10946,0.035 0.84676,1.3524 c 0.46572,0.7439 0.84677,1.3553 0.84677,1.3587 0,0 -0.26425,0 -0.58721,0 h -0.5872 l -0.79844,-1.2521 -0.79844,-1.2522 h -0.84848 -0.84848 v 1.2588 1.2587 h -0.55365 -0.55364 z m 3.4326,0.055 c 0.15768,-0.053 0.25928,-0.1191 0.39732,-0.2566 0.23844,-0.2375 0.36873,-0.5315 0.40616,-0.9167 0.0261,-0.2681 -0.0162,-0.5221 -0.12512,-0.7518 -0.18477,-0.3897 -0.49041,-0.6521 -0.8439,-0.7244 -0.0867,-0.018 -0.24146,-0.021 -1.13009,-0.021 h -1.02968 v 1.3563 1.3564 h 1.11055 1.11055 z m 12.656313,3.5146 c -0.0065,-0.017 -0.653747,-1.6271 -1.4384,-3.5781 -0.784654,-1.951 -1.430539,-3.5576 -1.435304,-3.57 -0.0082,-0.022 0.02337,-0.023 0.550867,-0.023 h 0.55953 l 1.125596,2.9319 c 0.61908,1.6125 1.129359,2.9278 1.133958,2.9228 0.0046,0 0.511025,-1.3243 1.125396,-2.9318 l 1.117037,-2.9229 h 0.559732 c 0.527648,0 0.559242,0 0.551186,0.023 -0.0047,0.012 -0.65429,1.6328 -1.443534,3.6008 l -1.434986,3.5781 h -0.479658 -0.479661 z m 4.610919,-3.57 v -3.6009 h 2.449067 2.449069 v 0.4931 0.4931 h -1.901936 -1.901935 v 1.0381 1.0381 h 1.654423 1.654424 v 0.4671 0.4671 h -1.654424 -1.654423 v 1.1094 1.1094 h 1.944272 1.944274 l 0.0034,0.4898 0.0034,0.4899 h -2.494821 -2.494818 z m -38.644522,2.8996 c -0.3656,-0.4012 -0.43637,-0.4851 -0.42903,-0.5081 0.0159,-0.05 0.39716,-0.416 0.55935,-0.537 0.24952,-0.1862 0.52192,-0.3382 0.77836,-0.4343 l 0.11399,-0.043 v -0.5949 -0.5949 l -0.0358,0.01 c -0.21932,0.052 -0.60956,0.1964 -0.83699,0.3101 -0.42908,0.2146 -0.75765,0.453 -1.14456,0.8304 l -0.22616,0.2205 -0.0474,-0.053 c -0.0261,-0.03 -0.20622,-0.228 -0.40032,-0.4412 -0.19409,-0.2132 -0.372,-0.4095 -0.39534,-0.4362 l -0.0424,-0.049 0.0519,-0.062 c 0.10326,-0.1229 0.53668,-0.5345 0.70195,-0.6667 0.34211,-0.2736 0.63754,-0.4618 1.03341,-0.6583 0.27288,-0.1355 0.44936,-0.2085 0.69695,-0.2883 0.16865,-0.054 0.47739,-0.1346 0.57304,-0.1489 0.0325,0 0.0612,-0.013 0.0638,-0.017 0.003,0 0.009,-0.2783 0.0141,-0.6084 l 0.009,-0.6001 h -0.0333 c -0.0183,0 -0.11705,0.017 -0.21946,0.039 -0.98417,0.204 -1.87104,0.6394 -2.70041,1.3257 -0.17248,0.1427 -0.56155,0.5239 -0.73329,0.7183 -0.0756,0.086 -0.14453,0.1636 -0.15313,0.1731 -0.0126,0.014 -0.12817,-0.1065 -0.60026,-0.6263 -0.32153,-0.354 -0.58661,-0.6495 -0.58905,-0.6567 -0.0106,-0.031 0.43094,-0.5153 0.73396,-0.8045 1.20739,-1.1527 2.67599,-1.8758 4.22724,-2.0815 0.59229,-0.078 1.2751,-0.079 1.87905,0 1.08736,0.1411 2.16226,0.5508 3.12331,1.1905 0.48016,0.3197 0.87803,0.6506 1.31633,1.0948 0.24375,0.2471 0.52056,0.5557 0.52032,0.5802 -7e-5,0.01 -0.0397,0.058 -0.0879,0.1118 -0.76428,0.8443 -1.07823,1.1876 -1.08596,1.1876 -0.005,0 -0.0852,-0.085 -0.17791,-0.1881 -0.96346,-1.0757 -2.11164,-1.756 -3.41592,-2.0239 l -0.241,-0.049 -0.003,0.5026 c -0.002,0.2765 0.001,0.5511 0.007,0.6103 l 0.01,0.1076 0.18889,0.043 c 0.80465,0.185 1.51037,0.5334 2.20155,1.087 0.16551,0.1325 0.71648,0.6666 0.71648,0.6945 0,0.01 -0.18612,0.2201 -0.4136,0.4704 -0.22748,0.2503 -0.42457,0.4692 -0.43796,0.4866 l -0.0243,0.032 -0.22316,-0.2182 c -0.40293,-0.3941 -0.74601,-0.6379 -1.20933,-0.8594 -0.2396,-0.1145 -0.54754,-0.226 -0.76724,-0.2777 l -0.0339,-0.01 -0.008,0.1458 c -0.0106,0.183 -0.0109,0.9341 -5e-4,0.9972 0.008,0.046 0.0112,0.048 0.13338,0.096 0.33737,0.1318 0.65452,0.3256 0.94918,0.58 0.11866,0.1025 0.34617,0.3343 0.37037,0.3774 0.01,0.017 -0.0505,0.086 -0.58469,0.6745 l -0.29212,0.3218 -0.16068,-0.1547 c -0.39246,-0.3779 -0.80672,-0.5537 -1.30286,-0.5528 -0.30114,0 -0.5134,0.051 -0.79464,0.1878 -0.20073,0.098 -0.36854,0.2187 -0.53554,0.3855 -0.0733,0.073 -0.13629,0.133 -0.1401,0.133 -0.004,0 -0.20394,-0.2163 -0.44474,-0.4806 z m 1.29179,-0.621 c 0.26729,-0.079 0.57875,-0.1089 0.84416,-0.08 0.12011,0.013 0.42611,0.081 0.50532,0.1115 0.0217,0.01 0.0228,-0.1215 0.0228,-2.6207 v -2.6296 l 0.0423,0.01 c 0.0233,0 0.098,0.016 0.16609,0.028 0.53945,0.089 1.09925,0.2672 1.61296,0.5129 l 0.21256,0.1016 0.0203,-0.048 c 0.0676,-0.1606 0.38182,-0.9774 0.38182,-0.9925 0,-0.018 -0.2944,-0.1652 -0.53634,-0.2673 -0.48721,-0.2056 -1.0263,-0.3613 -1.55424,-0.449 -0.42613,-0.071 -0.52501,-0.078 -1.10103,-0.078 -0.49205,0 -0.56051,0 -0.76207,0.03 -0.57821,0.078 -1.01479,0.1801 -1.48508,0.3464 -0.26804,0.095 -0.76207,0.3042 -0.76207,0.3231 0,0.01 0.37671,1.0489 0.38109,1.0525 0.002,0 0.0724,-0.029 0.15695,-0.067 0.53185,-0.2406 0.98797,-0.3747 1.6714,-0.4917 l 0.0405,-0.01 0.008,0.08 c 0.005,0.044 0.008,1.2272 0.008,2.6293 0,2.1553 0.003,2.5482 0.0179,2.5424 0.01,0 0.0584,-0.019 0.10794,-0.034 z" id="path1542" inkscape:export-filename=".\path1542.svg" inkscape:export-xdpi="96" inkscape:export-ydpi="96"></path></g></svg>